<?xml version="1.0" encoding="utf-8"?>
<!-- Svg Vector Icons : http://www.onlinewebfonts.com/icon -->
<!DOCTYPE svg PUBLIC "-//W3C//DTD SVG 1.1//EN" "http://www.w3.org/Graphics/SVG/1.1/DTD/svg11.dtd">
<svg version="1.1" xmlns="http://www.w3.org/2000/svg" xmlns:xlink="http://www.w3.org/1999/xlink" x="0px" y="0px" viewBox="0 0 256 256" enable-background="new 0 0 256 256" xml:space="preserve">
<metadata> Svg Vector Icons : http://www.onlinewebfonts.com/icon </metadata>
<g><g><g><path fill="#000000" d="M120.5,10.1c-18.3,1.6-32.6,5.6-47.4,13.3C51.6,34.6,33.3,53.2,22.4,74.9C14,91.8,10,108.7,10,128c0,19.3,4,36.3,12.4,53c9.6,19.2,25.8,36.7,44.4,48c38.7,23.6,88.4,22.6,126.4-2.7c49.1-32.6,66.6-95.9,41.4-149.1c-5.9-12.3-13-22.3-23.2-32.6c-18.9-18.9-41-29.9-67.7-33.7C138.8,10.3,124.5,9.7,120.5,10.1z M197.6,63c0.8,0.6,2,1.7,2.5,2.4l1,1.3l0.1,60.3l0.1,60.3l-1,2.1c-0.8,1.5-1.6,2.4-3.1,3.1c-2,1.1-2.2,1.1-22.9,1.1s-20.8,0-22.9-1c-1.5-0.8-2.4-1.6-3.1-3.1l-1-2.1l0.1-60.3l0.1-60.3l1-1.3c0.5-0.7,1.7-1.8,2.5-2.4l1.5-1h21.8h21.8L197.6,63z M137.1,106.9c1.1,0.7,2.4,2.1,3,3.2l1.1,1.9l0.1,29.5c0.1,19.9,0,30.1-0.4,31.3c-0.6,2.3-3,4.9-5.3,6c-1.7,0.8-3.3,0.9-16.5,0.9h-14.7v4.4v4.4h5.4c4.3,0,5.5,0.1,6.2,0.8c1,0.9,1.1,2.8,0,3.9c-0.7,0.8-2,0.8-23.1,0.8c-24.7,0-24.1,0-24.1-2.8c0-2.2,1.4-2.7,7-2.7h5v-4.3v-4.4l-15.4-0.1L50,179.5l-2-1.4c-1.1-0.8-2.4-2.2-2.9-3.2c-1-1.8-1-2.5-1.1-30.9c-0.1-20.8,0-29.8,0.4-31.5c0.6-2.9,3.1-5.8,5.6-6.5c0.9-0.3,17.8-0.4,43.4-0.4l41.8,0.1L137.1,106.9z"/><path fill="#000000" d="M154.3,67.6c-0.7,0.7-0.7,8.3,0,9c0.7,0.7,38.7,0.8,40.1,0.1c0.7-0.4,0.9-1,0.9-4.4c0-2.9-0.2-4-0.7-4.6c-0.6-0.6-3.1-0.7-20.2-0.7C159.8,67.1,154.7,67.2,154.3,67.6z"/><path fill="#000000" d="M158.3,134c-2.1,2.2-1.7,4.9,1,6c4,1.7,7-3.4,3.6-6.2C161.1,132.2,160,132.3,158.3,134z"/><path fill="#000000" d="M52.2,139.5v25.9h40.4H133v-25.9v-25.9H92.6H52.2V139.5z"/></g></g></g>
</svg>